<mxfile host="app.diagrams.net" modified="2024-03-12T18:37:01.994Z" agent="Mozilla/5.0 (X11; Ubuntu; Linux x86_64; rv:123.0) Gecko/20100101 Firefox/123.0" etag="b809RTMQwpst2Os4ZB49" version="24.0.5" type="device" pages="3">
  <diagram id="3228e29e-7158-1315-38df-8450db1d8a1d" name="Main">
    <mxGraphModel dx="1816" dy="2420" grid="1" gridSize="7" guides="1" tooltips="1" connect="1" arrows="1" fold="1" page="1" pageScale="1" pageWidth="1169" pageHeight="827" background="none" math="0" shadow="0">
      <root>
        <mxCell id="0" />
        <mxCell id="1" parent="0" />
        <mxCell id="9ZIgte_eGP6Cs3WeKvQb-21779" value="S" style="rounded=0;whiteSpace=wrap;html=1;glass=0;gradientDirection=east;strokeColor=#000000;fillColor=#FFFFFF;" parent="1" vertex="1">
          <mxGeometry x="357.26" y="-1155" width="512" height="256" as="geometry" />
        </mxCell>
        <mxCell id="9ZIgte_eGP6Cs3WeKvQb-21687" value="" style="rounded=0;whiteSpace=wrap;html=1;glass=1;gradientColor=#19A3FF;fillColor=#FF6666;gradientDirection=east;opacity=50;" parent="1" vertex="1">
          <mxGeometry x="357" y="-1485.38" width="512" height="256" as="geometry" />
        </mxCell>
        <mxCell id="9ZIgte_eGP6Cs3WeKvQb-21750" value="" style="ellipse;shape=doubleEllipse;whiteSpace=wrap;html=1;gradientColor=#FFFFFF;gradientDirection=radial;fillColor=#000000;opacity=50;" parent="1" vertex="1">
          <mxGeometry x="373.26" y="-1079" width="32" height="32" as="geometry" />
        </mxCell>
        <mxCell id="9ZIgte_eGP6Cs3WeKvQb-21751" value="" style="html=1;whiteSpace=wrap;shape=isoCube2;backgroundOutline=1;isoAngle=15;gradientDirection=south;" parent="1" vertex="1">
          <mxGeometry x="373.26" y="-1141" width="32" height="20" as="geometry" />
        </mxCell>
        <mxCell id="9ZIgte_eGP6Cs3WeKvQb-21752" value="" style="triangle;whiteSpace=wrap;html=1;rotation=-90;gradientColor=default;gradientDirection=west;fillColor=default;opacity=60;" parent="1" vertex="1">
          <mxGeometry x="357.26" y="-1111" width="64" height="32" as="geometry" />
        </mxCell>
        <mxCell id="9ZIgte_eGP6Cs3WeKvQb-21759" value="" style="ellipse;shape=doubleEllipse;whiteSpace=wrap;html=1;gradientColor=#FFFFFF;gradientDirection=radial;fillColor=#000000;opacity=50;" parent="1" vertex="1">
          <mxGeometry x="587" y="-1276.38" width="32" height="32" as="geometry" />
        </mxCell>
        <mxCell id="9ZIgte_eGP6Cs3WeKvQb-21761" value="" style="triangle;whiteSpace=wrap;html=1;rotation=-90;gradientColor=default;gradientDirection=west;fillColor=default;opacity=60;" parent="1" vertex="1">
          <mxGeometry x="571" y="-1308.38" width="64" height="32" as="geometry" />
        </mxCell>
        <mxCell id="9ZIgte_eGP6Cs3WeKvQb-21762" value="" style="ellipse;shape=doubleEllipse;whiteSpace=wrap;html=1;gradientColor=#FFFFFF;gradientDirection=radial;fillColor=#000000;opacity=50;" parent="1" vertex="1">
          <mxGeometry x="681" y="-1390.38" width="32" height="32" as="geometry" />
        </mxCell>
        <mxCell id="9ZIgte_eGP6Cs3WeKvQb-21764" value="" style="triangle;whiteSpace=wrap;html=1;rotation=-90;gradientColor=default;gradientDirection=west;fillColor=default;opacity=60;" parent="1" vertex="1">
          <mxGeometry x="665" y="-1422.38" width="64" height="32" as="geometry" />
        </mxCell>
        <mxCell id="9ZIgte_eGP6Cs3WeKvQb-21765" value="" style="ellipse;shape=doubleEllipse;whiteSpace=wrap;html=1;gradientColor=#FFFFFF;gradientDirection=radial;fillColor=#000000;opacity=50;" parent="1" vertex="1">
          <mxGeometry x="486" y="-1358.38" width="32" height="32" as="geometry" />
        </mxCell>
        <mxCell id="9ZIgte_eGP6Cs3WeKvQb-21767" value="" style="triangle;whiteSpace=wrap;html=1;rotation=-90;gradientColor=default;gradientDirection=west;fillColor=default;opacity=60;" parent="1" vertex="1">
          <mxGeometry x="472" y="-1390.38" width="60" height="32" as="geometry" />
        </mxCell>
        <mxCell id="9ZIgte_eGP6Cs3WeKvQb-21774" value="" style="verticalAlign=top;verticalLabelPosition=bottom;labelPosition=center;align=center;html=1;outlineConnect=0;gradientDirection=north;strokeWidth=2;shape=mxgraph.networks.radio_tower;" parent="1" vertex="1">
          <mxGeometry x="357" y="-1485.38" width="32" height="48" as="geometry" />
        </mxCell>
        <mxCell id="9ZIgte_eGP6Cs3WeKvQb-21775" value="" style="verticalAlign=top;verticalLabelPosition=bottom;labelPosition=center;align=center;html=1;outlineConnect=0;gradientDirection=north;strokeWidth=2;shape=mxgraph.networks.radio_tower;" parent="1" vertex="1">
          <mxGeometry x="441.26" y="-1141" width="32" height="48" as="geometry" />
        </mxCell>
        <mxCell id="9ZIgte_eGP6Cs3WeKvQb-21777" value="" style="verticalAlign=top;verticalLabelPosition=bottom;labelPosition=center;align=center;html=1;outlineConnect=0;gradientDirection=north;strokeWidth=2;shape=mxgraph.networks.radio_tower;" parent="1" vertex="1">
          <mxGeometry x="357" y="-1276.38" width="32" height="48" as="geometry" />
        </mxCell>
        <mxCell id="9ZIgte_eGP6Cs3WeKvQb-21778" value="" style="verticalAlign=top;verticalLabelPosition=bottom;labelPosition=center;align=center;html=1;outlineConnect=0;gradientDirection=north;strokeWidth=2;shape=mxgraph.networks.radio_tower;" parent="1" vertex="1">
          <mxGeometry x="837" y="-1277.38" width="32" height="48" as="geometry" />
        </mxCell>
        <mxCell id="9ZIgte_eGP6Cs3WeKvQb-21782" value="" style="verticalAlign=top;verticalLabelPosition=bottom;labelPosition=center;align=center;html=1;outlineConnect=0;gradientDirection=north;strokeWidth=2;shape=mxgraph.networks.comm_link;fillColor=#FFCD28;strokeColor=none;gradientColor=none;rotation=80;" parent="1" vertex="1">
          <mxGeometry x="596" y="-1492.38" width="14" height="128" as="geometry" />
        </mxCell>
        <mxCell id="9ZIgte_eGP6Cs3WeKvQb-21785" value="" style="verticalAlign=top;verticalLabelPosition=bottom;labelPosition=center;align=center;html=1;outlineConnect=0;gradientDirection=north;strokeWidth=2;shape=mxgraph.networks.radio_tower;" parent="1" vertex="1">
          <mxGeometry x="837" y="-1485.38" width="32" height="48" as="geometry" />
        </mxCell>
        <mxCell id="9ZIgte_eGP6Cs3WeKvQb-21786" value="Localization" style="text;html=1;align=center;verticalAlign=middle;resizable=0;points=[];autosize=1;strokeColor=none;fillColor=none;" parent="1" vertex="1">
          <mxGeometry x="508.26" y="-1152" width="84" height="35" as="geometry" />
        </mxCell>
        <mxCell id="9ZIgte_eGP6Cs3WeKvQb-21787" value="" style="verticalAlign=top;verticalLabelPosition=bottom;labelPosition=center;align=center;html=1;outlineConnect=0;gradientDirection=north;strokeWidth=2;shape=mxgraph.networks.comm_link;fillColor=#19A3FF;strokeColor=none;" parent="1" vertex="1">
          <mxGeometry x="533.76" y="-1124" width="32" height="128" as="geometry" />
        </mxCell>
        <mxCell id="9ZIgte_eGP6Cs3WeKvQb-21788" value="Onboard&lt;br&gt;Controller" style="text;html=1;align=center;verticalAlign=middle;resizable=0;points=[];autosize=1;strokeColor=none;fillColor=none;" parent="1" vertex="1">
          <mxGeometry x="595.26" y="-1154.5" width="70" height="49" as="geometry" />
        </mxCell>
        <mxCell id="9ZIgte_eGP6Cs3WeKvQb-21791" value="" style="verticalAlign=top;verticalLabelPosition=bottom;labelPosition=center;align=center;html=1;outlineConnect=0;gradientDirection=north;strokeWidth=2;shape=mxgraph.networks.comm_link;fillColor=#FFCD28;strokeColor=none;gradientColor=none;rotation=135;" parent="1" vertex="1">
          <mxGeometry x="539" y="-1408.38" width="14" height="82" as="geometry" />
        </mxCell>
        <mxCell id="9ZIgte_eGP6Cs3WeKvQb-21793" value="" style="verticalAlign=top;verticalLabelPosition=bottom;labelPosition=center;align=center;html=1;outlineConnect=0;gradientDirection=north;strokeWidth=2;shape=mxgraph.networks.comm_link;fillColor=#FFCD28;strokeColor=none;gradientColor=none;rotation=40;" parent="1" vertex="1">
          <mxGeometry x="639.5" y="-1429.38" width="14" height="96" as="geometry" />
        </mxCell>
        <mxCell id="9ZIgte_eGP6Cs3WeKvQb-21795" value="" style="verticalAlign=top;verticalLabelPosition=bottom;labelPosition=center;align=center;html=1;outlineConnect=0;gradientDirection=north;strokeWidth=2;shape=mxgraph.networks.comm_link;fillColor=#FFCD28;strokeColor=none;gradientColor=none;rotation=0;" parent="1" vertex="1">
          <mxGeometry x="609.26" y="-1111" width="42" height="143" as="geometry" />
        </mxCell>
        <mxCell id="9ZIgte_eGP6Cs3WeKvQb-21796" value="" style="verticalAlign=top;verticalLabelPosition=bottom;labelPosition=center;align=center;html=1;outlineConnect=0;gradientDirection=north;strokeWidth=2;shape=mxgraph.networks.comm_link;fillColor=#19A3FF;strokeColor=none;rotation=90;" parent="1" vertex="1">
          <mxGeometry x="609.38" y="-1678.38" width="6" height="405" as="geometry" />
        </mxCell>
        <mxCell id="9ZIgte_eGP6Cs3WeKvQb-21797" value="" style="verticalAlign=top;verticalLabelPosition=bottom;labelPosition=center;align=center;html=1;outlineConnect=0;gradientDirection=north;strokeWidth=2;shape=mxgraph.networks.comm_link;fillColor=#19A3FF;strokeColor=none;rotation=90;" parent="1" vertex="1">
          <mxGeometry x="611.13" y="-1438.5" width="4.25" height="405" as="geometry" />
        </mxCell>
        <mxCell id="9ZIgte_eGP6Cs3WeKvQb-21798" value="" style="verticalAlign=top;verticalLabelPosition=bottom;labelPosition=center;align=center;html=1;outlineConnect=0;gradientDirection=north;strokeWidth=2;shape=mxgraph.networks.comm_link;fillColor=#19A3FF;strokeColor=none;rotation=0;" parent="1" vertex="1">
          <mxGeometry x="365.5" y="-1432.13" width="11.5" height="149.5" as="geometry" />
        </mxCell>
        <mxCell id="9ZIgte_eGP6Cs3WeKvQb-21799" value="" style="verticalAlign=top;verticalLabelPosition=bottom;labelPosition=center;align=center;html=1;outlineConnect=0;gradientDirection=north;strokeWidth=2;shape=mxgraph.networks.comm_link;fillColor=#19A3FF;strokeColor=none;rotation=0;" parent="1" vertex="1">
          <mxGeometry x="847.25" y="-1432.38" width="11.5" height="129" as="geometry" />
        </mxCell>
        <mxCell id="9ZIgte_eGP6Cs3WeKvQb-21800" value="" style="fontColor=#0066CC;verticalAlign=top;verticalLabelPosition=bottom;labelPosition=center;align=center;html=1;outlineConnect=0;fillColor=#CCCCCC;strokeColor=#6881B3;gradientColor=none;gradientDirection=north;strokeWidth=2;shape=mxgraph.networks.laptop;" parent="1" vertex="1">
          <mxGeometry x="707.26" y="-1111" width="100" height="55" as="geometry" />
        </mxCell>
        <mxCell id="wJ12J2Tnx4nt86BV1SXh-1" value="" style="rounded=1;whiteSpace=wrap;html=1;fillColor=#1ba1e2;fontColor=#ffffff;strokeColor=#006EAF;" parent="1" vertex="1">
          <mxGeometry x="673" y="-1463" width="48" height="48" as="geometry" />
        </mxCell>
        <mxCell id="wJ12J2Tnx4nt86BV1SXh-2" value="" style="shape=image;html=1;verticalAlign=top;verticalLabelPosition=bottom;labelBackgroundColor=#ffffff;imageAspect=0;aspect=fixed;image=https://cdn1.iconfinder.com/data/icons/vehicle-37/24/Drone-128.png" parent="1" vertex="1">
          <mxGeometry x="681" y="-1455" width="32" height="32" as="geometry" />
        </mxCell>
        <mxCell id="wJ12J2Tnx4nt86BV1SXh-11" value="" style="rounded=1;whiteSpace=wrap;html=1;fillColor=#1ba1e2;fontColor=#ffffff;strokeColor=#006EAF;" parent="1" vertex="1">
          <mxGeometry x="478" y="-1437.38" width="48" height="48" as="geometry" />
        </mxCell>
        <mxCell id="wJ12J2Tnx4nt86BV1SXh-12" value="" style="shape=image;html=1;verticalAlign=top;verticalLabelPosition=bottom;labelBackgroundColor=#ffffff;imageAspect=0;aspect=fixed;image=https://cdn1.iconfinder.com/data/icons/vehicle-37/24/Drone-128.png" parent="1" vertex="1">
          <mxGeometry x="486" y="-1429.38" width="32" height="32" as="geometry" />
        </mxCell>
        <mxCell id="wJ12J2Tnx4nt86BV1SXh-13" value="" style="rounded=1;whiteSpace=wrap;html=1;fillColor=#1ba1e2;fontColor=#ffffff;strokeColor=#006EAF;" parent="1" vertex="1">
          <mxGeometry x="579" y="-1351.38" width="48" height="48" as="geometry" />
        </mxCell>
        <mxCell id="wJ12J2Tnx4nt86BV1SXh-14" value="" style="shape=image;html=1;verticalAlign=top;verticalLabelPosition=bottom;labelBackgroundColor=#ffffff;imageAspect=0;aspect=fixed;image=https://cdn1.iconfinder.com/data/icons/vehicle-37/24/Drone-128.png" parent="1" vertex="1">
          <mxGeometry x="587" y="-1343.38" width="32" height="32" as="geometry" />
        </mxCell>
      </root>
    </mxGraphModel>
  </diagram>
  <diagram id="abylQsp0k-ore7WknI2Y" name="Pipeline">
    <mxGraphModel dx="-745" dy="2664" grid="1" gridSize="10" guides="1" tooltips="1" connect="1" arrows="1" fold="1" page="1" pageScale="1" pageWidth="850" pageHeight="1100" math="0" shadow="0">
      <root>
        <mxCell id="0" />
        <mxCell id="1" parent="0" />
        <mxCell id="Kj5KFgZ0lVW4899rqYF9-1" value="" style="rounded=1;whiteSpace=wrap;html=1;fillColor=#b0e3e6;strokeColor=#0e8088;" parent="1" vertex="1">
          <mxGeometry x="2157" y="-1810" width="431" height="562.12" as="geometry" />
        </mxCell>
        <mxCell id="Kj5KFgZ0lVW4899rqYF9-2" value="Crazyflie" style="rounded=1;whiteSpace=wrap;html=1;" parent="1" vertex="1">
          <mxGeometry x="2244.5" y="-1522" width="256" height="128" as="geometry" />
        </mxCell>
        <mxCell id="Kj5KFgZ0lVW4899rqYF9-3" value="STM32" style="rounded=0;whiteSpace=wrap;html=1;fillColor=#1ba1e2;fontColor=#ffffff;strokeColor=#006EAF;" parent="1" vertex="1">
          <mxGeometry x="2286.5" y="-1482" width="48" height="48" as="geometry" />
        </mxCell>
        <mxCell id="IKYmzdzaYqqCpakKSA4x-17" style="edgeStyle=orthogonalEdgeStyle;rounded=0;orthogonalLoop=1;jettySize=auto;html=1;exitX=1;exitY=1;exitDx=0;exitDy=0;strokeColor=#ff0000;align=center;verticalAlign=middle;fontFamily=Helvetica;fontSize=11;fontColor=default;labelBackgroundColor=default;endArrow=classic;flowAnimation=1;entryX=-0.002;entryY=0.694;entryDx=0;entryDy=0;entryPerimeter=0;strokeWidth=3;opacity=50;dashed=1;dashPattern=1 1;" edge="1" parent="1" source="Kj5KFgZ0lVW4899rqYF9-4" target="Kj5KFgZ0lVW4899rqYF9-12">
          <mxGeometry relative="1" as="geometry">
            <mxPoint x="2731" y="-997.88" as="targetPoint" />
            <Array as="points">
              <mxPoint x="2621" y="-1433.88" />
              <mxPoint x="2621" y="-727.88" />
              <mxPoint x="2921" y="-727.88" />
              <mxPoint x="2921" y="-1065.88" />
            </Array>
          </mxGeometry>
        </mxCell>
        <mxCell id="Kj5KFgZ0lVW4899rqYF9-4" value="NRF51" style="rounded=0;whiteSpace=wrap;html=1;fillColor=#1ba1e2;fontColor=#ffffff;strokeColor=#006EAF;" parent="1" vertex="1">
          <mxGeometry x="2426.5" y="-1482" width="48" height="48" as="geometry" />
        </mxCell>
        <mxCell id="Kj5KFgZ0lVW4899rqYF9-5" value="AI Deck" style="rounded=1;whiteSpace=wrap;html=1;" parent="1" vertex="1">
          <mxGeometry x="2239.5" y="-1759" width="266" height="171" as="geometry" />
        </mxCell>
        <mxCell id="Kj5KFgZ0lVW4899rqYF9-6" value="&lt;font style=&quot;font-size: 12px;&quot;&gt;Loco&lt;/font&gt;" style="rounded=1;whiteSpace=wrap;html=1;" parent="1" vertex="1">
          <mxGeometry x="2243" y="-1382" width="259" height="32.38" as="geometry" />
        </mxCell>
        <mxCell id="Kj5KFgZ0lVW4899rqYF9-7" value="GAP8" style="rounded=0;whiteSpace=wrap;html=1;fillColor=#1ba1e2;fontColor=#ffffff;strokeColor=#006EAF;" parent="1" vertex="1">
          <mxGeometry x="2286.5" y="-1691" width="48" height="48" as="geometry" />
        </mxCell>
        <mxCell id="Kj5KFgZ0lVW4899rqYF9-8" value="NINA" style="rounded=0;whiteSpace=wrap;html=1;fillColor=#1ba1e2;fontColor=#ffffff;strokeColor=#006EAF;" parent="1" vertex="1">
          <mxGeometry x="2426.5" y="-1692" width="48" height="48" as="geometry" />
        </mxCell>
        <mxCell id="Kj5KFgZ0lVW4899rqYF9-9" value="" style="rounded=1;whiteSpace=wrap;html=1;fillColor=#b0e3e6;strokeColor=#0e8088;" parent="1" vertex="1">
          <mxGeometry x="2892" y="-1687.88" width="909" height="980" as="geometry" />
        </mxCell>
        <mxCell id="Kj5KFgZ0lVW4899rqYF9-10" value="" style="fontColor=#0066CC;verticalAlign=top;verticalLabelPosition=bottom;labelPosition=center;align=center;html=1;outlineConnect=0;fillColor=#CCCCCC;strokeColor=#6881B3;gradientColor=none;gradientDirection=north;strokeWidth=2;shape=mxgraph.networks.laptop;aspect=fixed;" parent="1" vertex="1">
          <mxGeometry x="3411" y="-918.6799999999997" width="256" height="140.8" as="geometry" />
        </mxCell>
        <mxCell id="Kj5KFgZ0lVW4899rqYF9-11" style="edgeStyle=orthogonalEdgeStyle;rounded=0;orthogonalLoop=1;jettySize=auto;html=1;entryX=1;entryY=0.5;entryDx=0;entryDy=0;fillColor=#008a00;strokeColor=#000000;strokeWidth=4;flowAnimation=1;opacity=25;" parent="1" source="Kj5KFgZ0lVW4899rqYF9-12" target="Kj5KFgZ0lVW4899rqYF9-4" edge="1">
          <mxGeometry relative="1" as="geometry">
            <Array as="points">
              <mxPoint x="2647" y="-1102.88" />
              <mxPoint x="2647" y="-1457.88" />
            </Array>
          </mxGeometry>
        </mxCell>
        <mxCell id="IKYmzdzaYqqCpakKSA4x-10" style="edgeStyle=orthogonalEdgeStyle;rounded=0;orthogonalLoop=1;jettySize=auto;html=1;strokeColor=#005700;align=center;verticalAlign=middle;fontFamily=Helvetica;fontSize=11;fontColor=default;labelBackgroundColor=default;endArrow=classic;flowAnimation=1;strokeWidth=3;fillColor=#008a00;entryX=1.016;entryY=0.101;entryDx=0;entryDy=0;entryPerimeter=0;" edge="1" parent="1" target="Kj5KFgZ0lVW4899rqYF9-4">
          <mxGeometry relative="1" as="geometry">
            <mxPoint x="2922" y="-1086.6399999999999" as="sourcePoint" />
            <mxPoint x="2611" y="-1477.88" as="targetPoint" />
            <Array as="points">
              <mxPoint x="2791" y="-1086.88" />
              <mxPoint x="2791" y="-1477.88" />
              <mxPoint x="2631" y="-1477.88" />
            </Array>
          </mxGeometry>
        </mxCell>
        <mxCell id="Kj5KFgZ0lVW4899rqYF9-12" value="" style="html=1;strokeWidth=1;shadow=0;dashed=0;shape=mxgraph.ios7.misc.bluetooth;fillColor=#007AFF;strokeColor=none;buttonText=;strokeColor2=#222222;fontColor=#222222;fontSize=8;verticalLabelPosition=bottom;verticalAlign=top;align=center;sketch=0;" parent="1" vertex="1">
          <mxGeometry x="2920" y="-1130.5" width="81" height="92.62" as="geometry" />
        </mxCell>
        <mxCell id="Kj5KFgZ0lVW4899rqYF9-13" value="" style="html=1;verticalLabelPosition=bottom;align=center;labelBackgroundColor=#ffffff;verticalAlign=top;strokeWidth=2;strokeColor=#0080F0;shadow=0;dashed=0;shape=mxgraph.ios7.icons.wifi;pointerEvents=1;aspect=fixed;" parent="1" vertex="1">
          <mxGeometry x="2937" y="-1611.8000000000002" width="64" height="53.92" as="geometry" />
        </mxCell>
        <mxCell id="Kj5KFgZ0lVW4899rqYF9-14" value="Himax&lt;br&gt;320×320" style="rounded=0;whiteSpace=wrap;html=1;fillColor=#1ba1e2;fontColor=#ffffff;strokeColor=#006EAF;" parent="1" vertex="1">
          <mxGeometry x="2356.5" y="-1789" width="48" height="48" as="geometry" />
        </mxCell>
        <mxCell id="Kj5KFgZ0lVW4899rqYF9-17" value="Business&lt;br&gt;Logic" style="text;html=1;align=center;verticalAlign=middle;resizable=0;points=[];autosize=1;strokeColor=none;fillColor=none;" parent="1" vertex="1">
          <mxGeometry x="3541" y="-1239.88" width="70" height="40" as="geometry" />
        </mxCell>
        <mxCell id="Kj5KFgZ0lVW4899rqYF9-18" value="" style="rounded=0;whiteSpace=wrap;html=1;" parent="1" vertex="1">
          <mxGeometry x="3109" y="-1254.88" width="210" height="128.62" as="geometry" />
        </mxCell>
        <mxCell id="Kj5KFgZ0lVW4899rqYF9-19" value="&lt;div&gt;gap8.bin&lt;/div&gt;" style="ellipse;whiteSpace=wrap;html=1;" parent="1" vertex="1">
          <mxGeometry x="3011" y="-1206.0700000000002" width="63" height="31" as="geometry" />
        </mxCell>
        <mxCell id="Kj5KFgZ0lVW4899rqYF9-20" value="&lt;div&gt;stm32.bin&lt;/div&gt;" style="ellipse;whiteSpace=wrap;html=1;" parent="1" vertex="1">
          <mxGeometry x="3011" y="-1043.88" width="63" height="31" as="geometry" />
        </mxCell>
        <mxCell id="Kj5KFgZ0lVW4899rqYF9-21" value="" style="rounded=0;whiteSpace=wrap;html=1;" parent="1" vertex="1">
          <mxGeometry x="3116" y="-1064.88" width="210" height="128.62" as="geometry" />
        </mxCell>
        <mxCell id="Kj5KFgZ0lVW4899rqYF9-22" value="" style="rounded=0;whiteSpace=wrap;html=1;" parent="1" vertex="1">
          <mxGeometry x="3417.5" y="-1199.88" width="329" height="222" as="geometry" />
        </mxCell>
        <mxCell id="Kj5KFgZ0lVW4899rqYF9-23" value="main.c" style="ellipse;whiteSpace=wrap;html=1;" parent="1" vertex="1">
          <mxGeometry x="3235" y="-1165.8800000000006" width="63" height="31" as="geometry" />
        </mxCell>
        <mxCell id="AtxhRvOjIkDFr8ttRG78-26" style="edgeStyle=orthogonalEdgeStyle;rounded=0;orthogonalLoop=1;jettySize=auto;html=1;exitX=0.5;exitY=0;exitDx=0;exitDy=0;entryX=0.5;entryY=1;entryDx=0;entryDy=0;strokeColor=default;align=center;verticalAlign=middle;fontFamily=Helvetica;fontSize=11;fontColor=default;labelBackgroundColor=default;endArrow=classic;flowAnimation=1;" edge="1" parent="1" source="Kj5KFgZ0lVW4899rqYF9-25" target="Kj5KFgZ0lVW4899rqYF9-26">
          <mxGeometry relative="1" as="geometry" />
        </mxCell>
        <mxCell id="Kj5KFgZ0lVW4899rqYF9-25" value="&lt;div&gt;stm32_lib.c&lt;/div&gt;" style="ellipse;whiteSpace=wrap;html=1;" parent="1" vertex="1">
          <mxGeometry x="3242" y="-987.07" width="63" height="31" as="geometry" />
        </mxCell>
        <mxCell id="Kj5KFgZ0lVW4899rqYF9-26" value="main.c" style="ellipse;whiteSpace=wrap;html=1;" parent="1" vertex="1">
          <mxGeometry x="3242" y="-1047.0700000000002" width="63" height="31" as="geometry" />
        </mxCell>
        <mxCell id="AtxhRvOjIkDFr8ttRG78-24" style="edgeStyle=orthogonalEdgeStyle;rounded=0;orthogonalLoop=1;jettySize=auto;html=1;exitX=0.5;exitY=1;exitDx=0;exitDy=0;strokeColor=default;align=center;verticalAlign=middle;fontFamily=Helvetica;fontSize=11;fontColor=default;labelBackgroundColor=default;endArrow=classic;flowAnimation=1;" edge="1" parent="1" source="Kj5KFgZ0lVW4899rqYF9-28" target="Kj5KFgZ0lVW4899rqYF9-23">
          <mxGeometry relative="1" as="geometry" />
        </mxCell>
        <mxCell id="Kj5KFgZ0lVW4899rqYF9-28" value="&lt;div&gt;gap8_lib.c&lt;/div&gt;" style="ellipse;whiteSpace=wrap;html=1;" parent="1" vertex="1">
          <mxGeometry x="3235" y="-1242.88" width="63" height="31" as="geometry" />
        </mxCell>
        <mxCell id="Kj5KFgZ0lVW4899rqYF9-29" style="edgeStyle=orthogonalEdgeStyle;rounded=0;orthogonalLoop=1;jettySize=auto;html=1;exitX=0.5;exitY=1;exitDx=0;exitDy=0;exitPerimeter=0;entryX=0.5;entryY=1;entryDx=0;entryDy=0;flowAnimation=1;" parent="1" source="Kj5KFgZ0lVW4899rqYF9-30" target="Kj5KFgZ0lVW4899rqYF9-20" edge="1">
          <mxGeometry relative="1" as="geometry">
            <Array as="points">
              <mxPoint x="3162" y="-952.8799999999999" />
              <mxPoint x="3162" y="-917.8799999999999" />
              <mxPoint x="3043" y="-917.8799999999999" />
            </Array>
          </mxGeometry>
        </mxCell>
        <mxCell id="Kj5KFgZ0lVW4899rqYF9-30" value="BUILD&lt;br&gt;gap32" style="shape=cylinder3;whiteSpace=wrap;html=1;boundedLbl=1;backgroundOutline=1;size=15;" parent="1" vertex="1">
          <mxGeometry x="3140" y="-1028.38" width="57" height="75.31" as="geometry" />
        </mxCell>
        <mxCell id="Kj5KFgZ0lVW4899rqYF9-31" style="edgeStyle=orthogonalEdgeStyle;rounded=0;orthogonalLoop=1;jettySize=auto;html=1;exitX=0.5;exitY=1;exitDx=0;exitDy=0;exitPerimeter=0;entryX=0.5;entryY=1;entryDx=0;entryDy=0;flowAnimation=1;" parent="1" source="Kj5KFgZ0lVW4899rqYF9-32" target="Kj5KFgZ0lVW4899rqYF9-19" edge="1">
          <mxGeometry relative="1" as="geometry">
            <Array as="points">
              <mxPoint x="3162" y="-1106.88" />
              <mxPoint x="3043" y="-1106.88" />
            </Array>
          </mxGeometry>
        </mxCell>
        <mxCell id="Kj5KFgZ0lVW4899rqYF9-32" value="BUILD&lt;br&gt;gap8" style="shape=cylinder3;whiteSpace=wrap;html=1;boundedLbl=1;backgroundOutline=1;size=15;" parent="1" vertex="1">
          <mxGeometry x="3133" y="-1225.88" width="57" height="84" as="geometry" />
        </mxCell>
        <mxCell id="AtxhRvOjIkDFr8ttRG78-23" style="edgeStyle=orthogonalEdgeStyle;rounded=0;orthogonalLoop=1;jettySize=auto;html=1;exitX=0;exitY=0.5;exitDx=0;exitDy=0;strokeColor=default;align=center;verticalAlign=middle;fontFamily=Helvetica;fontSize=11;fontColor=default;labelBackgroundColor=default;endArrow=classic;flowAnimation=1;" edge="1" parent="1" source="Kj5KFgZ0lVW4899rqYF9-34" target="Kj5KFgZ0lVW4899rqYF9-23">
          <mxGeometry relative="1" as="geometry" />
        </mxCell>
        <mxCell id="XlngGC2TMZ_8KCzDN6Xe-7" style="edgeStyle=orthogonalEdgeStyle;rounded=0;orthogonalLoop=1;jettySize=auto;html=1;exitX=1;exitY=0.5;exitDx=0;exitDy=0;entryX=0.5;entryY=1;entryDx=0;entryDy=0;strokeColor=default;align=center;verticalAlign=middle;fontFamily=Helvetica;fontSize=11;fontColor=default;labelBackgroundColor=default;endArrow=classic;flowAnimation=1;" edge="1" parent="1" source="Kj5KFgZ0lVW4899rqYF9-34" target="IKYmzdzaYqqCpakKSA4x-18">
          <mxGeometry relative="1" as="geometry" />
        </mxCell>
        <mxCell id="Kj5KFgZ0lVW4899rqYF9-34" value="&lt;div&gt;gap8.c&lt;/div&gt;" style="ellipse;whiteSpace=wrap;html=1;" parent="1" vertex="1">
          <mxGeometry x="3447" y="-1165.88" width="112" height="31" as="geometry" />
        </mxCell>
        <mxCell id="AtxhRvOjIkDFr8ttRG78-20" style="edgeStyle=orthogonalEdgeStyle;rounded=0;orthogonalLoop=1;jettySize=auto;html=1;exitX=0.5;exitY=0;exitDx=0;exitDy=0;entryX=0.5;entryY=1;entryDx=0;entryDy=0;strokeColor=default;align=center;verticalAlign=middle;fontFamily=Helvetica;fontSize=11;fontColor=default;labelBackgroundColor=default;endArrow=classic;flowAnimation=1;" edge="1" parent="1" source="Kj5KFgZ0lVW4899rqYF9-39" target="Kj5KFgZ0lVW4899rqYF9-34">
          <mxGeometry relative="1" as="geometry" />
        </mxCell>
        <mxCell id="AtxhRvOjIkDFr8ttRG78-21" style="edgeStyle=orthogonalEdgeStyle;rounded=0;orthogonalLoop=1;jettySize=auto;html=1;entryX=0.5;entryY=0;entryDx=0;entryDy=0;strokeColor=default;align=center;verticalAlign=middle;fontFamily=Helvetica;fontSize=11;fontColor=default;labelBackgroundColor=default;endArrow=classic;flowAnimation=1;" edge="1" parent="1" source="Kj5KFgZ0lVW4899rqYF9-39" target="Kj5KFgZ0lVW4899rqYF9-42">
          <mxGeometry relative="1" as="geometry" />
        </mxCell>
        <mxCell id="Kj5KFgZ0lVW4899rqYF9-39" value="&lt;div&gt;CPX_COMM.c&lt;/div&gt;" style="ellipse;whiteSpace=wrap;html=1;" parent="1" vertex="1">
          <mxGeometry x="3447" y="-1106.88" width="112" height="31" as="geometry" />
        </mxCell>
        <mxCell id="AtxhRvOjIkDFr8ttRG78-19" style="edgeStyle=orthogonalEdgeStyle;rounded=0;orthogonalLoop=1;jettySize=auto;html=1;entryX=1;entryY=0.5;entryDx=0;entryDy=0;strokeColor=default;align=center;verticalAlign=middle;fontFamily=Helvetica;fontSize=11;fontColor=default;labelBackgroundColor=default;endArrow=classic;flowAnimation=1;" edge="1" parent="1" source="Kj5KFgZ0lVW4899rqYF9-41" target="Kj5KFgZ0lVW4899rqYF9-42">
          <mxGeometry relative="1" as="geometry" />
        </mxCell>
        <mxCell id="Kj5KFgZ0lVW4899rqYF9-41" value="CFTP_COMM.c" style="ellipse;whiteSpace=wrap;html=1;" parent="1" vertex="1">
          <mxGeometry x="3615" y="-1018.07" width="112" height="31" as="geometry" />
        </mxCell>
        <mxCell id="AtxhRvOjIkDFr8ttRG78-22" style="edgeStyle=orthogonalEdgeStyle;rounded=0;orthogonalLoop=1;jettySize=auto;html=1;exitX=0;exitY=0.5;exitDx=0;exitDy=0;entryX=1;entryY=0.5;entryDx=0;entryDy=0;strokeColor=default;align=center;verticalAlign=middle;fontFamily=Helvetica;fontSize=11;fontColor=default;labelBackgroundColor=default;endArrow=classic;flowAnimation=1;" edge="1" parent="1" source="Kj5KFgZ0lVW4899rqYF9-42" target="Kj5KFgZ0lVW4899rqYF9-26">
          <mxGeometry relative="1" as="geometry" />
        </mxCell>
        <mxCell id="XlngGC2TMZ_8KCzDN6Xe-8" style="edgeStyle=orthogonalEdgeStyle;rounded=0;orthogonalLoop=1;jettySize=auto;html=1;exitX=1;exitY=0;exitDx=0;exitDy=0;entryX=0.75;entryY=1;entryDx=0;entryDy=0;strokeColor=default;align=center;verticalAlign=middle;fontFamily=Helvetica;fontSize=11;fontColor=default;labelBackgroundColor=default;endArrow=classic;flowAnimation=1;" edge="1" parent="1" source="Kj5KFgZ0lVW4899rqYF9-42" target="IKYmzdzaYqqCpakKSA4x-18">
          <mxGeometry relative="1" as="geometry">
            <Array as="points">
              <mxPoint x="3543" y="-1067.88" />
              <mxPoint x="3686" y="-1067.88" />
            </Array>
          </mxGeometry>
        </mxCell>
        <mxCell id="Kj5KFgZ0lVW4899rqYF9-42" value="stm32.c" style="ellipse;whiteSpace=wrap;html=1;" parent="1" vertex="1">
          <mxGeometry x="3447" y="-1018.07" width="112" height="31" as="geometry" />
        </mxCell>
        <mxCell id="Kj5KFgZ0lVW4899rqYF9-47" style="edgeStyle=orthogonalEdgeStyle;rounded=0;orthogonalLoop=1;jettySize=auto;html=1;exitX=0;exitY=0.5;exitDx=0;exitDy=0;entryX=0.494;entryY=0.125;entryDx=0;entryDy=0;entryPerimeter=0;flowAnimation=1;" parent="1" edge="1">
          <mxGeometry relative="1" as="geometry">
            <mxPoint x="3034.3400000000024" y="-1191.9500000000003" as="sourcePoint" />
            <mxPoint x="2971.0040000000004" y="-1124.88" as="targetPoint" />
          </mxGeometry>
        </mxCell>
        <mxCell id="Kj5KFgZ0lVW4899rqYF9-48" style="edgeStyle=orthogonalEdgeStyle;rounded=0;orthogonalLoop=1;jettySize=auto;html=1;exitX=0;exitY=0.5;exitDx=0;exitDy=0;entryX=0.435;entryY=0.988;entryDx=0;entryDy=0;entryPerimeter=0;flowAnimation=1;" parent="1" source="Kj5KFgZ0lVW4899rqYF9-20" target="Kj5KFgZ0lVW4899rqYF9-12" edge="1">
          <mxGeometry relative="1" as="geometry">
            <Array as="points">
              <mxPoint x="2991" y="-1028.88" />
              <mxPoint x="2944" y="-1028.88" />
            </Array>
          </mxGeometry>
        </mxCell>
        <mxCell id="Kj5KFgZ0lVW4899rqYF9-49" value="GAP8" style="text;html=1;align=center;verticalAlign=middle;resizable=0;points=[];autosize=1;strokeColor=none;fillColor=none;" parent="1" vertex="1">
          <mxGeometry x="3189" y="-1289.88" width="49" height="35" as="geometry" />
        </mxCell>
        <mxCell id="Kj5KFgZ0lVW4899rqYF9-50" value="STM32" style="text;html=1;align=center;verticalAlign=middle;resizable=0;points=[];autosize=1;strokeColor=none;fillColor=none;" parent="1" vertex="1">
          <mxGeometry x="3193" y="-1099.88" width="56" height="35" as="geometry" />
        </mxCell>
        <mxCell id="Kj5KFgZ0lVW4899rqYF9-53" value="Patch firmware" style="text;html=1;align=center;verticalAlign=middle;resizable=0;points=[];autosize=1;strokeColor=none;fillColor=none;" parent="1" vertex="1">
          <mxGeometry x="2641" y="-1141.88" width="98" height="35" as="geometry" />
        </mxCell>
        <mxCell id="Kj5KFgZ0lVW4899rqYF9-54" value="Flow V2" style="rounded=1;whiteSpace=wrap;html=1;" parent="1" vertex="1">
          <mxGeometry x="2243" y="-1338.38" width="259" height="32.38" as="geometry" />
        </mxCell>
        <mxCell id="Kj5KFgZ0lVW4899rqYF9-55" value="" style="ellipse;shape=cloud;whiteSpace=wrap;html=1;opacity=35;shadow=1;textShadow=1;fillColor=#008a00;fontColor=#ffffff;strokeColor=#005700;" parent="1" vertex="1">
          <mxGeometry x="3333" y="-1271.38" width="78" height="325.5" as="geometry" />
        </mxCell>
        <mxCell id="Kj5KFgZ0lVW4899rqYF9-57" value="" style="rounded=1;whiteSpace=wrap;html=1;fillColor=#b0e3e6;strokeColor=#0e8088;" parent="1" vertex="1">
          <mxGeometry x="2157" y="-1193.88" width="431" height="562.12" as="geometry" />
        </mxCell>
        <mxCell id="Kj5KFgZ0lVW4899rqYF9-58" value="Crazyflie" style="rounded=1;whiteSpace=wrap;html=1;" parent="1" vertex="1">
          <mxGeometry x="2244.5" y="-905.8799999999999" width="256" height="128" as="geometry" />
        </mxCell>
        <mxCell id="Kj5KFgZ0lVW4899rqYF9-59" value="STM32" style="rounded=0;whiteSpace=wrap;html=1;fillColor=#1ba1e2;fontColor=#ffffff;strokeColor=#006EAF;" parent="1" vertex="1">
          <mxGeometry x="2286.5" y="-865.8799999999999" width="48" height="48" as="geometry" />
        </mxCell>
        <mxCell id="Kj5KFgZ0lVW4899rqYF9-60" value="NRF51" style="rounded=0;whiteSpace=wrap;html=1;fillColor=#1ba1e2;fontColor=#ffffff;strokeColor=#006EAF;" parent="1" vertex="1">
          <mxGeometry x="2426.5" y="-865.8799999999999" width="48" height="48" as="geometry" />
        </mxCell>
        <mxCell id="Kj5KFgZ0lVW4899rqYF9-61" value="AI Deck" style="rounded=1;whiteSpace=wrap;html=1;" parent="1" vertex="1">
          <mxGeometry x="2239.5" y="-1142.88" width="266" height="171" as="geometry" />
        </mxCell>
        <mxCell id="Kj5KFgZ0lVW4899rqYF9-62" value="&lt;font style=&quot;font-size: 12px;&quot;&gt;Loco&lt;/font&gt;" style="rounded=1;whiteSpace=wrap;html=1;" parent="1" vertex="1">
          <mxGeometry x="2243" y="-765.8799999999999" width="259" height="32.38" as="geometry" />
        </mxCell>
        <mxCell id="Kj5KFgZ0lVW4899rqYF9-75" style="edgeStyle=orthogonalEdgeStyle;rounded=0;orthogonalLoop=1;jettySize=auto;html=1;exitX=0.75;exitY=1;exitDx=0;exitDy=0;entryX=0.75;entryY=0;entryDx=0;entryDy=0;strokeWidth=3;dashed=1;dashPattern=1 1;fillColor=#fa6800;strokeColor=#C73500;opacity=50;flowAnimation=1;" parent="1" source="Kj5KFgZ0lVW4899rqYF9-63" target="Kj5KFgZ0lVW4899rqYF9-59" edge="1">
          <mxGeometry relative="1" as="geometry" />
        </mxCell>
        <mxCell id="Kj5KFgZ0lVW4899rqYF9-63" value="GAP8" style="rounded=0;whiteSpace=wrap;html=1;fillColor=#1ba1e2;fontColor=#ffffff;strokeColor=#006EAF;" parent="1" vertex="1">
          <mxGeometry x="2286.5" y="-1074.88" width="48" height="48" as="geometry" />
        </mxCell>
        <mxCell id="Kj5KFgZ0lVW4899rqYF9-64" value="NINA" style="rounded=0;whiteSpace=wrap;html=1;fillColor=#1ba1e2;fontColor=#ffffff;strokeColor=#006EAF;" parent="1" vertex="1">
          <mxGeometry x="2426.5" y="-1075.88" width="48" height="48" as="geometry" />
        </mxCell>
        <mxCell id="Kj5KFgZ0lVW4899rqYF9-65" value="Himax&lt;br&gt;320×320" style="rounded=0;whiteSpace=wrap;html=1;fillColor=#1ba1e2;fontColor=#ffffff;strokeColor=#006EAF;" parent="1" vertex="1">
          <mxGeometry x="2356.5" y="-1172.88" width="48" height="48" as="geometry" />
        </mxCell>
        <mxCell id="Kj5KFgZ0lVW4899rqYF9-68" value="Flow V2" style="rounded=1;whiteSpace=wrap;html=1;" parent="1" vertex="1">
          <mxGeometry x="2243" y="-722.26" width="259" height="32.38" as="geometry" />
        </mxCell>
        <mxCell id="Kj5KFgZ0lVW4899rqYF9-69" style="edgeStyle=orthogonalEdgeStyle;rounded=0;orthogonalLoop=1;jettySize=auto;html=1;entryX=1;entryY=0.5;entryDx=0;entryDy=0;fillColor=#008a00;strokeColor=#000000;arcSize=37;strokeWidth=4;flowAnimation=1;opacity=25;" parent="1" edge="1">
          <mxGeometry relative="1" as="geometry">
            <Array as="points">
              <mxPoint x="2913" y="-1107.88" />
              <mxPoint x="2640" y="-1107.88" />
              <mxPoint x="2640" y="-819.88" />
            </Array>
            <mxPoint x="2912.75" y="-1081.38" as="sourcePoint" />
            <mxPoint x="2467.25" y="-820.38" as="targetPoint" />
          </mxGeometry>
        </mxCell>
        <mxCell id="Kj5KFgZ0lVW4899rqYF9-70" style="edgeStyle=orthogonalEdgeStyle;rounded=0;orthogonalLoop=1;jettySize=auto;html=1;exitX=0.5;exitY=0;exitDx=0;exitDy=0;entryX=0.5;entryY=1;entryDx=0;entryDy=0;strokeWidth=4;fillColor=#d80073;strokeColor=#A50040;dashed=1;dashPattern=1 1;flowAnimation=1;opacity=25;" parent="1" edge="1">
          <mxGeometry relative="1" as="geometry">
            <mxPoint x="2437" y="-864.76" as="sourcePoint" />
            <mxPoint x="2437" y="-1432.88" as="targetPoint" />
          </mxGeometry>
        </mxCell>
        <mxCell id="Kj5KFgZ0lVW4899rqYF9-71" style="edgeStyle=orthogonalEdgeStyle;rounded=0;orthogonalLoop=1;jettySize=auto;html=1;exitX=0.75;exitY=1;exitDx=0;exitDy=0;entryX=0.75;entryY=0;entryDx=0;entryDy=0;strokeWidth=4;fillColor=#d80073;strokeColor=#A50040;dashed=1;dashPattern=1 1;shadow=0;textShadow=0;opacity=25;flowAnimation=1;" parent="1" source="Kj5KFgZ0lVW4899rqYF9-4" target="Kj5KFgZ0lVW4899rqYF9-60" edge="1">
          <mxGeometry relative="1" as="geometry" />
        </mxCell>
        <mxCell id="Kj5KFgZ0lVW4899rqYF9-72" value="CFTP" style="edgeLabel;html=1;align=center;verticalAlign=middle;resizable=0;points=[];" parent="Kj5KFgZ0lVW4899rqYF9-71" vertex="1" connectable="0">
          <mxGeometry x="-0.2603" y="3" relative="1" as="geometry">
            <mxPoint x="-15" y="2" as="offset" />
          </mxGeometry>
        </mxCell>
        <mxCell id="Kj5KFgZ0lVW4899rqYF9-74" style="edgeStyle=orthogonalEdgeStyle;rounded=0;orthogonalLoop=1;jettySize=auto;html=1;exitX=0.25;exitY=0;exitDx=0;exitDy=0;entryX=0.25;entryY=1;entryDx=0;entryDy=0;strokeWidth=3;dashed=1;dashPattern=1 1;fillColor=#fa6800;strokeColor=#C73500;opacity=50;flowAnimation=1;" parent="1" source="Kj5KFgZ0lVW4899rqYF9-78" target="Kj5KFgZ0lVW4899rqYF9-63" edge="1">
          <mxGeometry relative="1" as="geometry">
            <Array as="points">
              <mxPoint x="2299" y="-917.88" />
              <mxPoint x="2299" y="-917.88" />
            </Array>
          </mxGeometry>
        </mxCell>
        <mxCell id="Kj5KFgZ0lVW4899rqYF9-80" style="edgeStyle=orthogonalEdgeStyle;rounded=0;orthogonalLoop=1;jettySize=auto;html=1;exitX=0.75;exitY=1;exitDx=0;exitDy=0;entryX=0.75;entryY=0;entryDx=0;entryDy=0;strokeWidth=3;dashed=1;dashPattern=1 1;fillColor=#fa6800;strokeColor=#C73500;opacity=50;flowAnimation=1;" parent="1" edge="1">
          <mxGeometry relative="1" as="geometry">
            <mxPoint x="2323" y="-1643" as="sourcePoint" />
            <mxPoint x="2323" y="-1482" as="targetPoint" />
          </mxGeometry>
        </mxCell>
        <mxCell id="Kj5KFgZ0lVW4899rqYF9-81" style="edgeStyle=orthogonalEdgeStyle;rounded=0;orthogonalLoop=1;jettySize=auto;html=1;exitX=0.25;exitY=0;exitDx=0;exitDy=0;entryX=0.25;entryY=1;entryDx=0;entryDy=0;strokeWidth=3;dashed=1;dashPattern=1 1;fillColor=#fa6800;strokeColor=#C73500;opacity=50;flowAnimation=1;" parent="1" edge="1">
          <mxGeometry relative="1" as="geometry">
            <mxPoint x="2299" y="-1482" as="sourcePoint" />
            <mxPoint x="2299" y="-1643" as="targetPoint" />
            <Array as="points">
              <mxPoint x="2299" y="-1534" />
              <mxPoint x="2299" y="-1534" />
            </Array>
          </mxGeometry>
        </mxCell>
        <mxCell id="Kj5KFgZ0lVW4899rqYF9-82" value="&lt;div&gt;CPX&lt;/div&gt;" style="text;html=1;align=center;verticalAlign=middle;resizable=0;points=[];autosize=1;strokeColor=none;fillColor=none;" parent="1" vertex="1">
          <mxGeometry x="2284.5" y="-1569.19" width="50" height="30" as="geometry" />
        </mxCell>
        <mxCell id="Kj5KFgZ0lVW4899rqYF9-83" value="" style="edgeStyle=orthogonalEdgeStyle;rounded=0;orthogonalLoop=1;jettySize=auto;html=1;exitX=0.25;exitY=0;exitDx=0;exitDy=0;entryX=0.25;entryY=1;entryDx=0;entryDy=0;strokeWidth=3;dashed=1;dashPattern=1 1;fillColor=#fa6800;strokeColor=#C73500;opacity=50;flowAnimation=1;" parent="1" source="Kj5KFgZ0lVW4899rqYF9-59" target="Kj5KFgZ0lVW4899rqYF9-78" edge="1">
          <mxGeometry relative="1" as="geometry">
            <mxPoint x="2299" y="-865.88" as="sourcePoint" />
            <mxPoint x="2299" y="-1026.88" as="targetPoint" />
            <Array as="points" />
          </mxGeometry>
        </mxCell>
        <mxCell id="Kj5KFgZ0lVW4899rqYF9-78" value="&lt;div&gt;CPX&lt;/div&gt;" style="text;html=1;align=center;verticalAlign=middle;resizable=0;points=[];autosize=1;strokeColor=none;fillColor=none;" parent="1" vertex="1">
          <mxGeometry x="2284.5" y="-956.07" width="50" height="30" as="geometry" />
        </mxCell>
        <mxCell id="p1YwJiHcvKK23QlAhqyA-10" value="Logs" style="text;html=1;align=center;verticalAlign=middle;resizable=0;points=[];autosize=1;strokeColor=none;fillColor=none;" parent="1" vertex="1">
          <mxGeometry x="2739" y="-763.5" width="50" height="30" as="geometry" />
        </mxCell>
        <mxCell id="p1YwJiHcvKK23QlAhqyA-12" value="Stream Camera" style="text;html=1;align=center;verticalAlign=middle;resizable=0;points=[];autosize=1;strokeColor=none;fillColor=none;" parent="1" vertex="1">
          <mxGeometry x="2782" y="-1627.8799999999997" width="110" height="30" as="geometry" />
        </mxCell>
        <mxCell id="EYkpaJEB_ktMoDxUqwiC-1" value="" style="rounded=0;whiteSpace=wrap;html=1;" parent="1" vertex="1">
          <mxGeometry x="3071" y="-1527.88" width="383" height="200" as="geometry" />
        </mxCell>
        <mxCell id="EYkpaJEB_ktMoDxUqwiC-2" value="&lt;div&gt;Offline learning&lt;/div&gt;" style="text;html=1;align=center;verticalAlign=middle;resizable=0;points=[];autosize=1;strokeColor=none;fillColor=none;fontSize=16;" parent="1" vertex="1">
          <mxGeometry x="3189" y="-1558.76" width="130" height="30" as="geometry" />
        </mxCell>
        <mxCell id="AtxhRvOjIkDFr8ttRG78-17" style="edgeStyle=orthogonalEdgeStyle;rounded=0;orthogonalLoop=1;jettySize=auto;html=1;exitX=1;exitY=0.5;exitDx=0;exitDy=0;entryX=0.5;entryY=0;entryDx=0;entryDy=0;strokeColor=default;align=center;verticalAlign=middle;fontFamily=Helvetica;fontSize=11;fontColor=default;labelBackgroundColor=default;endArrow=classic;flowAnimation=1;" edge="1" parent="1" source="AtxhRvOjIkDFr8ttRG78-6" target="AtxhRvOjIkDFr8ttRG78-8">
          <mxGeometry relative="1" as="geometry" />
        </mxCell>
        <mxCell id="AtxhRvOjIkDFr8ttRG78-6" value="train.ipynb" style="ellipse;whiteSpace=wrap;html=1;" vertex="1" parent="1">
          <mxGeometry x="3221" y="-1497.88" width="70" height="44.12" as="geometry" />
        </mxCell>
        <mxCell id="AtxhRvOjIkDFr8ttRG78-16" style="edgeStyle=orthogonalEdgeStyle;rounded=0;orthogonalLoop=1;jettySize=auto;html=1;exitX=0.5;exitY=0;exitDx=0;exitDy=0;exitPerimeter=0;entryX=0;entryY=0.5;entryDx=0;entryDy=0;strokeColor=default;align=center;verticalAlign=middle;fontFamily=Helvetica;fontSize=11;fontColor=default;labelBackgroundColor=default;endArrow=classic;flowAnimation=1;" edge="1" parent="1" source="AtxhRvOjIkDFr8ttRG78-7" target="AtxhRvOjIkDFr8ttRG78-6">
          <mxGeometry relative="1" as="geometry">
            <Array as="points">
              <mxPoint x="3144" y="-1475.88" />
            </Array>
          </mxGeometry>
        </mxCell>
        <mxCell id="AtxhRvOjIkDFr8ttRG78-7" value="Dataset" style="shape=cylinder3;whiteSpace=wrap;html=1;boundedLbl=1;backgroundOutline=1;size=15;" vertex="1" parent="1">
          <mxGeometry x="3116" y="-1461.88" width="57" height="84" as="geometry" />
        </mxCell>
        <mxCell id="AtxhRvOjIkDFr8ttRG78-18" style="edgeStyle=orthogonalEdgeStyle;rounded=0;orthogonalLoop=1;jettySize=auto;html=1;exitX=1;exitY=0.5;exitDx=0;exitDy=0;strokeColor=default;align=center;verticalAlign=middle;fontFamily=Helvetica;fontSize=11;fontColor=default;labelBackgroundColor=default;endArrow=classic;flowAnimation=1;" edge="1" parent="1" source="AtxhRvOjIkDFr8ttRG78-8" target="Kj5KFgZ0lVW4899rqYF9-34">
          <mxGeometry relative="1" as="geometry" />
        </mxCell>
        <mxCell id="AtxhRvOjIkDFr8ttRG78-8" value="model.onnx" style="ellipse;whiteSpace=wrap;html=1;" vertex="1" parent="1">
          <mxGeometry x="3333" y="-1434" width="82" height="46" as="geometry" />
        </mxCell>
        <mxCell id="AtxhRvOjIkDFr8ttRG78-25" style="edgeStyle=orthogonalEdgeStyle;rounded=0;orthogonalLoop=1;jettySize=auto;html=1;exitX=0;exitY=0.5;exitDx=0;exitDy=0;entryX=0.5;entryY=0;entryDx=0;entryDy=0;entryPerimeter=0;strokeColor=default;align=center;verticalAlign=middle;fontFamily=Helvetica;fontSize=11;fontColor=default;labelBackgroundColor=default;endArrow=classic;flowAnimation=1;" edge="1" parent="1" source="Kj5KFgZ0lVW4899rqYF9-23" target="Kj5KFgZ0lVW4899rqYF9-32">
          <mxGeometry relative="1" as="geometry" />
        </mxCell>
        <mxCell id="AtxhRvOjIkDFr8ttRG78-27" style="edgeStyle=orthogonalEdgeStyle;rounded=0;orthogonalLoop=1;jettySize=auto;html=1;exitX=0;exitY=0.5;exitDx=0;exitDy=0;entryX=0.5;entryY=0;entryDx=0;entryDy=0;entryPerimeter=0;strokeColor=default;align=center;verticalAlign=middle;fontFamily=Helvetica;fontSize=11;fontColor=default;labelBackgroundColor=default;endArrow=classic;flowAnimation=1;" edge="1" parent="1" source="Kj5KFgZ0lVW4899rqYF9-26" target="Kj5KFgZ0lVW4899rqYF9-30">
          <mxGeometry relative="1" as="geometry" />
        </mxCell>
        <mxCell id="oT5ShW1Q7S4KNQri9RwU-1" value="&lt;div&gt;&lt;br&gt;&lt;/div&gt;" style="edgeStyle=orthogonalEdgeStyle;rounded=0;orthogonalLoop=1;jettySize=auto;html=1;strokeColor=#ff0000;strokeWidth=3;dashed=1;dashPattern=1 1;opacity=50;fillColor=#1ba1e2;flowAnimation=1;entryX=0;entryY=1;entryDx=0;entryDy=-15;entryPerimeter=0;exitX=0.377;exitY=-0.004;exitDx=0;exitDy=0;exitPerimeter=0;align=center;verticalAlign=middle;fontFamily=Helvetica;fontSize=11;fontColor=default;labelBackgroundColor=default;endArrow=classic;" edge="1" parent="1" source="Kj5KFgZ0lVW4899rqYF9-12" target="AtxhRvOjIkDFr8ttRG78-7">
          <mxGeometry relative="1" as="geometry">
            <mxPoint x="2844" y="-1198.0300000000002" as="sourcePoint" />
            <mxPoint x="3109" y="-1393.0300000000002" as="targetPoint" />
            <Array as="points">
              <mxPoint x="2950" y="-1197.88" />
              <mxPoint x="2951" y="-1392.88" />
            </Array>
          </mxGeometry>
        </mxCell>
        <mxCell id="oT5ShW1Q7S4KNQri9RwU-5" value="Logs" style="text;html=1;align=center;verticalAlign=middle;resizable=0;points=[];autosize=1;strokeColor=none;fillColor=none;" vertex="1" parent="1">
          <mxGeometry x="3027" y="-1424.0000000000002" width="50" height="30" as="geometry" />
        </mxCell>
        <mxCell id="KCH-vFQE6zLyx8t9fyqf-26" style="edgeStyle=orthogonalEdgeStyle;rounded=0;orthogonalLoop=1;jettySize=auto;html=1;entryX=0;entryY=0;entryDx=0;entryDy=15;entryPerimeter=0;strokeColor=#ff0000;align=center;verticalAlign=middle;fontFamily=Helvetica;fontSize=11;fontColor=default;labelBackgroundColor=default;endArrow=classic;flowAnimation=1;fillColor=#f8cecc;strokeWidth=3;dashed=1;dashPattern=1 1;opacity=50;exitX=0.409;exitY=-0.003;exitDx=0;exitDy=0;exitPerimeter=0;" edge="1" parent="1" source="IKYmzdzaYqqCpakKSA4x-18" target="AtxhRvOjIkDFr8ttRG78-7">
          <mxGeometry relative="1" as="geometry">
            <mxPoint x="3491" y="-2037.88" as="sourcePoint" />
            <Array as="points">
              <mxPoint x="3611" y="-1617.88" />
              <mxPoint x="3096" y="-1617.88" />
              <mxPoint x="3096" y="-1446.88" />
            </Array>
          </mxGeometry>
        </mxCell>
        <mxCell id="KCH-vFQE6zLyx8t9fyqf-28" value="Logs" style="text;html=1;align=center;verticalAlign=middle;resizable=0;points=[];autosize=1;strokeColor=none;fillColor=none;" vertex="1" parent="1">
          <mxGeometry x="3315" y="-1647.88" width="50" height="30" as="geometry" />
        </mxCell>
        <mxCell id="93Txc4UAAvfpRB6nSOpQ-3" value="" style="rounded=1;whiteSpace=wrap;html=1;fillColor=#1ba1e2;fontColor=#ffffff;strokeColor=#006EAF;" vertex="1" parent="1">
          <mxGeometry x="2149" y="-657.88" width="48" height="48" as="geometry" />
        </mxCell>
        <mxCell id="93Txc4UAAvfpRB6nSOpQ-4" value="" style="shape=image;html=1;verticalAlign=top;verticalLabelPosition=bottom;labelBackgroundColor=#ffffff;imageAspect=0;aspect=fixed;image=https://cdn1.iconfinder.com/data/icons/vehicle-37/24/Drone-128.png" vertex="1" parent="1">
          <mxGeometry x="2157" y="-649.88" width="32" height="32" as="geometry" />
        </mxCell>
        <mxCell id="93Txc4UAAvfpRB6nSOpQ-5" value="" style="rounded=1;whiteSpace=wrap;html=1;fillColor=#1ba1e2;fontColor=#ffffff;strokeColor=#006EAF;" vertex="1" parent="1">
          <mxGeometry x="2157" y="-1289.88" width="48" height="48" as="geometry" />
        </mxCell>
        <mxCell id="93Txc4UAAvfpRB6nSOpQ-6" value="" style="shape=image;html=1;verticalAlign=top;verticalLabelPosition=bottom;labelBackgroundColor=#ffffff;imageAspect=0;aspect=fixed;image=https://cdn1.iconfinder.com/data/icons/vehicle-37/24/Drone-128.png" vertex="1" parent="1">
          <mxGeometry x="2165" y="-1281.88" width="32" height="32" as="geometry" />
        </mxCell>
        <mxCell id="IKYmzdzaYqqCpakKSA4x-12" style="edgeStyle=orthogonalEdgeStyle;rounded=0;orthogonalLoop=1;jettySize=auto;html=1;exitX=0.25;exitY=0;exitDx=0;exitDy=0;entryX=0.75;entryY=1;entryDx=0;entryDy=0;strokeColor=default;align=center;verticalAlign=middle;fontFamily=Helvetica;fontSize=11;fontColor=default;labelBackgroundColor=default;endArrow=classic;flowAnimation=1;" edge="1" parent="1" target="IKYmzdzaYqqCpakKSA4x-4">
          <mxGeometry relative="1" as="geometry">
            <mxPoint x="3153" y="-681.88" as="sourcePoint" />
          </mxGeometry>
        </mxCell>
        <mxCell id="IKYmzdzaYqqCpakKSA4x-2" value="" style="shape=image;html=1;verticalAlign=top;verticalLabelPosition=bottom;labelBackgroundColor=#ffffff;imageAspect=0;aspect=fixed;image=https://cdn1.iconfinder.com/data/icons/nuvola2/128x128/devices/joystick.png;fontFamily=Helvetica;fontSize=11;fontColor=default;" vertex="1" parent="1">
          <mxGeometry x="3121" y="-689.88" width="128" height="128" as="geometry" />
        </mxCell>
        <mxCell id="IKYmzdzaYqqCpakKSA4x-4" value="" style="rounded=0;whiteSpace=wrap;html=1;" vertex="1" parent="1">
          <mxGeometry x="3033" y="-837.88" width="160" height="90" as="geometry" />
        </mxCell>
        <mxCell id="IKYmzdzaYqqCpakKSA4x-5" value="Python client" style="text;html=1;align=center;verticalAlign=middle;resizable=0;points=[];autosize=1;strokeColor=none;fillColor=none;" vertex="1" parent="1">
          <mxGeometry x="3077" y="-877.88" width="90" height="30" as="geometry" />
        </mxCell>
        <mxCell id="IKYmzdzaYqqCpakKSA4x-6" value="main.py" style="ellipse;whiteSpace=wrap;html=1;" vertex="1" parent="1">
          <mxGeometry x="3058" y="-808.88" width="63" height="31" as="geometry" />
        </mxCell>
        <mxCell id="IKYmzdzaYqqCpakKSA4x-7" value="&lt;div&gt;Supervised&lt;/div&gt;&lt;div&gt;Learning&lt;br&gt;&lt;/div&gt;" style="text;html=1;align=center;verticalAlign=middle;resizable=0;points=[];autosize=1;strokeColor=none;fillColor=none;" vertex="1" parent="1">
          <mxGeometry x="3071" y="-667.88" width="80" height="40" as="geometry" />
        </mxCell>
        <mxCell id="IKYmzdzaYqqCpakKSA4x-8" style="edgeStyle=orthogonalEdgeStyle;rounded=0;orthogonalLoop=1;jettySize=auto;html=1;entryX=0.252;entryY=0.978;entryDx=0;entryDy=0;entryPerimeter=0;strokeColor=#005700;align=center;verticalAlign=middle;fontFamily=Helvetica;fontSize=11;fontColor=default;labelBackgroundColor=default;endArrow=classic;flowAnimation=1;fillColor=#008a00;strokeWidth=3;" edge="1" parent="1" source="IKYmzdzaYqqCpakKSA4x-4" target="Kj5KFgZ0lVW4899rqYF9-12">
          <mxGeometry relative="1" as="geometry" />
        </mxCell>
        <mxCell id="IKYmzdzaYqqCpakKSA4x-9" style="edgeStyle=orthogonalEdgeStyle;rounded=0;orthogonalLoop=1;jettySize=auto;html=1;entryX=0.993;entryY=0.848;entryDx=0;entryDy=0;entryPerimeter=0;strokeColor=#005700;align=center;verticalAlign=middle;fontFamily=Helvetica;fontSize=11;fontColor=default;labelBackgroundColor=default;endArrow=classic;flowAnimation=1;fillColor=#008a00;strokeWidth=3;" edge="1" parent="1">
          <mxGeometry relative="1" as="geometry">
            <mxPoint x="2920" y="-1087.9199999999998" as="sourcePoint" />
            <mxPoint x="2474.164" y="-855.216" as="targetPoint" />
            <Array as="points">
              <mxPoint x="2791" y="-1087.88" />
              <mxPoint x="2791" y="-854.88" />
            </Array>
          </mxGeometry>
        </mxCell>
        <mxCell id="IKYmzdzaYqqCpakKSA4x-11" value="Commands" style="text;html=1;align=center;verticalAlign=middle;resizable=0;points=[];autosize=1;strokeColor=none;fillColor=none;" vertex="1" parent="1">
          <mxGeometry x="2953" y="-827.88" width="80" height="30" as="geometry" />
        </mxCell>
        <mxCell id="IKYmzdzaYqqCpakKSA4x-15" style="edgeStyle=orthogonalEdgeStyle;rounded=0;orthogonalLoop=1;jettySize=auto;html=1;exitX=1;exitY=0.5;exitDx=0;exitDy=0;entryX=-0.004;entryY=0.621;entryDx=0;entryDy=0;entryPerimeter=0;strokeColor=#ff0000;align=center;verticalAlign=middle;fontFamily=Helvetica;fontSize=11;fontColor=default;labelBackgroundColor=default;endArrow=classic;flowAnimation=1;strokeWidth=3;dashed=1;dashPattern=1 1;opacity=50;" edge="1" parent="1" source="Kj5KFgZ0lVW4899rqYF9-60" target="Kj5KFgZ0lVW4899rqYF9-12">
          <mxGeometry relative="1" as="geometry">
            <Array as="points">
              <mxPoint x="2621" y="-841.88" />
              <mxPoint x="2621" y="-727.88" />
              <mxPoint x="2920" y="-727.88" />
            </Array>
          </mxGeometry>
        </mxCell>
        <mxCell id="IKYmzdzaYqqCpakKSA4x-18" value="" style="rounded=0;whiteSpace=wrap;html=1;" vertex="1" parent="1">
          <mxGeometry x="3521" y="-1527.88" width="220" height="159.88" as="geometry" />
        </mxCell>
        <mxCell id="IKYmzdzaYqqCpakKSA4x-19" value="Simulator" style="text;html=1;align=center;verticalAlign=middle;resizable=0;points=[];autosize=1;strokeColor=none;fillColor=none;fontSize=16;" vertex="1" parent="1">
          <mxGeometry x="3656.5" y="-1557.8799999999999" width="90" height="30" as="geometry" />
        </mxCell>
        <mxCell id="IKYmzdzaYqqCpakKSA4x-24" value="" style="rounded=1;whiteSpace=wrap;html=1;fillColor=#1ba1e2;fontColor=#ffffff;strokeColor=#006EAF;" vertex="1" parent="1">
          <mxGeometry x="3552" y="-1443.88" width="48" height="48" as="geometry" />
        </mxCell>
        <mxCell id="IKYmzdzaYqqCpakKSA4x-25" value="" style="shape=image;html=1;verticalAlign=top;verticalLabelPosition=bottom;labelBackgroundColor=#ffffff;imageAspect=0;aspect=fixed;image=https://cdn1.iconfinder.com/data/icons/vehicle-37/24/Drone-128.png" vertex="1" parent="1">
          <mxGeometry x="3560" y="-1435.88" width="32" height="32" as="geometry" />
        </mxCell>
        <mxCell id="IKYmzdzaYqqCpakKSA4x-26" value="" style="rounded=1;whiteSpace=wrap;html=1;fillColor=#1ba1e2;fontColor=#ffffff;strokeColor=#006EAF;" vertex="1" parent="1">
          <mxGeometry x="3607" y="-1509.88" width="48" height="48" as="geometry" />
        </mxCell>
        <mxCell id="IKYmzdzaYqqCpakKSA4x-27" value="" style="shape=image;html=1;verticalAlign=top;verticalLabelPosition=bottom;labelBackgroundColor=#ffffff;imageAspect=0;aspect=fixed;image=https://cdn1.iconfinder.com/data/icons/vehicle-37/24/Drone-128.png" vertex="1" parent="1">
          <mxGeometry x="3615" y="-1501.88" width="32" height="32" as="geometry" />
        </mxCell>
        <mxCell id="IKYmzdzaYqqCpakKSA4x-28" value="" style="rounded=1;whiteSpace=wrap;html=1;fillColor=#1ba1e2;fontColor=#ffffff;strokeColor=#006EAF;" vertex="1" parent="1">
          <mxGeometry x="3671" y="-1443.88" width="48" height="48" as="geometry" />
        </mxCell>
        <mxCell id="IKYmzdzaYqqCpakKSA4x-29" value="" style="shape=image;html=1;verticalAlign=top;verticalLabelPosition=bottom;labelBackgroundColor=#ffffff;imageAspect=0;aspect=fixed;image=https://cdn1.iconfinder.com/data/icons/vehicle-37/24/Drone-128.png" vertex="1" parent="1">
          <mxGeometry x="3679" y="-1435.88" width="32" height="32" as="geometry" />
        </mxCell>
        <mxCell id="XlngGC2TMZ_8KCzDN6Xe-1" style="edgeStyle=orthogonalEdgeStyle;rounded=0;orthogonalLoop=1;jettySize=auto;html=1;exitX=1;exitY=0.5;exitDx=0;exitDy=0;entryX=-0.016;entryY=0.438;entryDx=0;entryDy=0;entryPerimeter=0;strokeWidth=3;dashed=1;dashPattern=1 1;strokeColor=#ff0000;opacity=50;flowAnimation=1;align=center;verticalAlign=middle;fontFamily=Helvetica;fontSize=11;fontColor=default;labelBackgroundColor=default;endArrow=classic;" edge="1" parent="1" source="Kj5KFgZ0lVW4899rqYF9-8" target="Kj5KFgZ0lVW4899rqYF9-13">
          <mxGeometry relative="1" as="geometry">
            <mxPoint x="2871" y="-1577.88" as="targetPoint" />
            <Array as="points">
              <mxPoint x="2761" y="-1667.88" />
              <mxPoint x="2761" y="-1587.88" />
              <mxPoint x="2871" y="-1587.88" />
            </Array>
          </mxGeometry>
        </mxCell>
        <mxCell id="XlngGC2TMZ_8KCzDN6Xe-2" style="edgeStyle=orthogonalEdgeStyle;rounded=0;orthogonalLoop=1;jettySize=auto;html=1;exitX=1;exitY=0.5;exitDx=0;exitDy=0;entryX=0.002;entryY=0.343;entryDx=0;entryDy=0;entryPerimeter=0;strokeWidth=3;strokeColor=#ff0000;dashed=1;dashPattern=1 1;flowAnimation=1;opacity=50;" edge="1" parent="1" source="Kj5KFgZ0lVW4899rqYF9-64" target="Kj5KFgZ0lVW4899rqYF9-13">
          <mxGeometry relative="1" as="geometry">
            <Array as="points">
              <mxPoint x="2761" y="-1051.88" />
              <mxPoint x="2761" y="-1592.88" />
            </Array>
          </mxGeometry>
        </mxCell>
        <mxCell id="XlngGC2TMZ_8KCzDN6Xe-4" value="" style="ellipse;shape=cloud;whiteSpace=wrap;html=1;opacity=35;shadow=1;textShadow=1;fillColor=#008a00;fontColor=#ffffff;strokeColor=#005700;rotation=89;" vertex="1" parent="1">
          <mxGeometry x="3615" y="-1453.7600000000002" width="78" height="325.5" as="geometry" />
        </mxCell>
        <mxCell id="HE9exWtOW4v-8NvVDKCL-1" value="Commands" style="text;html=1;align=center;verticalAlign=middle;resizable=0;points=[];autosize=1;strokeColor=none;fillColor=none;" vertex="1" parent="1">
          <mxGeometry x="2812" y="-1077.88" width="80" height="30" as="geometry" />
        </mxCell>
        <mxCell id="HE9exWtOW4v-8NvVDKCL-2" style="edgeStyle=orthogonalEdgeStyle;rounded=0;orthogonalLoop=1;jettySize=auto;html=1;strokeColor=#ff0000;align=center;verticalAlign=middle;fontFamily=Helvetica;fontSize=11;fontColor=default;labelBackgroundColor=default;endArrow=classic;flowAnimation=1;entryX=-0.005;entryY=0.802;entryDx=0;entryDy=0;entryPerimeter=0;dashed=1;dashPattern=1 1;opacity=50;strokeWidth=3;fillColor=#1ba1e2;" edge="1" parent="1" target="AtxhRvOjIkDFr8ttRG78-7">
          <mxGeometry relative="1" as="geometry">
            <mxPoint x="2985" y="-1585.95" as="sourcePoint" />
            <mxPoint x="3100" y="-1394" as="targetPoint" />
            <Array as="points">
              <mxPoint x="3015" y="-1585.88" />
              <mxPoint x="3015" y="-1394.88" />
            </Array>
          </mxGeometry>
        </mxCell>
      </root>
    </mxGraphModel>
  </diagram>
  <diagram id="IClPwDsbdd2oTUolAAq5" name="AI">
    <mxGraphModel dx="2670" dy="1420" grid="1" gridSize="10" guides="1" tooltips="1" connect="1" arrows="1" fold="1" page="0" pageScale="1" pageWidth="850" pageHeight="1100" math="0" shadow="0">
      <root>
        <mxCell id="0" />
        <mxCell id="1" parent="0" />
        <mxCell id="BvUsk2P4A67WcpJFAGDw-3" value="" style="rounded=1;whiteSpace=wrap;html=1;fillColor=#b0e3e6;strokeColor=#0e8088;" vertex="1" parent="1">
          <mxGeometry x="180" y="-220" width="670" height="345" as="geometry" />
        </mxCell>
        <mxCell id="8TzF05IMCw3amNNvQEdC-1" value="" style="rounded=1;whiteSpace=wrap;html=1;fillColor=#b0e3e6;strokeColor=#0e8088;" vertex="1" parent="1">
          <mxGeometry x="190" y="200" width="610" height="330" as="geometry" />
        </mxCell>
        <mxCell id="_hx6_GJGES43o-Bzlk7O-4" value="" style="rounded=1;whiteSpace=wrap;html=1;fillColor=#1ba1e2;fontColor=#ffffff;strokeColor=#006EAF;" parent="1" vertex="1">
          <mxGeometry x="-280" y="-27" width="239" height="244" as="geometry" />
        </mxCell>
        <mxCell id="RyXJAOycTilbPtWUm33V-22" style="edgeStyle=orthogonalEdgeStyle;rounded=0;orthogonalLoop=1;jettySize=auto;html=1;exitX=1;exitY=0.5;exitDx=0;exitDy=0;entryX=0;entryY=0.5;entryDx=0;entryDy=0;fillColor=#1ba1e2;strokeColor=#006EAF;strokeWidth=3;flowAnimation=1;" parent="1" source="RyXJAOycTilbPtWUm33V-1" target="RyXJAOycTilbPtWUm33V-21" edge="1">
          <mxGeometry relative="1" as="geometry" />
        </mxCell>
        <mxCell id="RyXJAOycTilbPtWUm33V-1" value="Neural Network" style="rounded=0;whiteSpace=wrap;html=1;" parent="1" vertex="1">
          <mxGeometry x="540" y="-88" width="120" height="60" as="geometry" />
        </mxCell>
        <mxCell id="RyXJAOycTilbPtWUm33V-19" style="edgeStyle=orthogonalEdgeStyle;rounded=0;orthogonalLoop=1;jettySize=auto;html=1;exitX=1;exitY=0.5;exitDx=0;exitDy=0;entryX=0;entryY=0.5;entryDx=0;entryDy=0;fillColor=#1ba1e2;strokeColor=#006EAF;strokeWidth=3;flowAnimation=1;" parent="1" source="RyXJAOycTilbPtWUm33V-3" target="RyXJAOycTilbPtWUm33V-1" edge="1">
          <mxGeometry relative="1" as="geometry" />
        </mxCell>
        <mxCell id="RyXJAOycTilbPtWUm33V-3" value="&lt;div&gt;State&lt;/div&gt;" style="ellipse;whiteSpace=wrap;html=1;" parent="1" vertex="1">
          <mxGeometry x="230" y="-103" width="110" height="90" as="geometry" />
        </mxCell>
        <mxCell id="RyXJAOycTilbPtWUm33V-14" style="edgeStyle=orthogonalEdgeStyle;rounded=0;orthogonalLoop=1;jettySize=auto;html=1;entryX=0.5;entryY=0;entryDx=0;entryDy=0;fillColor=#dae8fc;gradientColor=#7ea6e0;strokeColor=#6c8ebf;strokeWidth=3;flowAnimation=1;exitX=0.5;exitY=0;exitDx=0;exitDy=0;" parent="1" source="_hx6_GJGES43o-Bzlk7O-4" target="RyXJAOycTilbPtWUm33V-3" edge="1">
          <mxGeometry relative="1" as="geometry">
            <mxPoint x="-270" y="-60" as="sourcePoint" />
            <Array as="points">
              <mxPoint x="-160" y="-130" />
              <mxPoint x="285" y="-130" />
            </Array>
          </mxGeometry>
        </mxCell>
        <mxCell id="RyXJAOycTilbPtWUm33V-12" value="" style="shape=image;html=1;verticalAlign=top;verticalLabelPosition=bottom;labelBackgroundColor=#ffffff;imageAspect=0;aspect=fixed;image=https://cdn1.iconfinder.com/data/icons/vehicle-37/24/Drone-128.png" parent="1" vertex="1">
          <mxGeometry x="-260" y="47" width="78" height="78" as="geometry" />
        </mxCell>
        <mxCell id="RyXJAOycTilbPtWUm33V-13" style="edgeStyle=orthogonalEdgeStyle;rounded=0;orthogonalLoop=1;jettySize=auto;html=1;exitX=0;exitY=0.5;exitDx=0;exitDy=0;strokeWidth=3;flowAnimation=1;fillColor=#dae8fc;gradientColor=#7ea6e0;strokeColor=#6c8ebf;entryX=1;entryY=0.5;entryDx=0;entryDy=0;" parent="1" source="RyXJAOycTilbPtWUm33V-3" target="_hx6_GJGES43o-Bzlk7O-4" edge="1">
          <mxGeometry relative="1" as="geometry">
            <mxPoint x="-20" y="95" as="targetPoint" />
          </mxGeometry>
        </mxCell>
        <mxCell id="RyXJAOycTilbPtWUm33V-16" value="Broadcast" style="text;html=1;align=center;verticalAlign=middle;resizable=0;points=[];autosize=1;strokeColor=none;fillColor=none;" parent="1" vertex="1">
          <mxGeometry x="-30" y="50" width="80" height="30" as="geometry" />
        </mxCell>
        <mxCell id="RyXJAOycTilbPtWUm33V-17" value="Receive&lt;br&gt;&lt;div&gt;Data&lt;/div&gt;" style="text;html=1;align=center;verticalAlign=middle;resizable=0;points=[];autosize=1;strokeColor=none;fillColor=none;" parent="1" vertex="1">
          <mxGeometry x="20" y="-170" width="70" height="40" as="geometry" />
        </mxCell>
        <mxCell id="RyXJAOycTilbPtWUm33V-40" style="edgeStyle=orthogonalEdgeStyle;rounded=0;orthogonalLoop=1;jettySize=auto;html=1;entryX=0.5;entryY=1;entryDx=0;entryDy=0;strokeWidth=3;fillColor=#ffcd28;gradientColor=#ffa500;strokeColor=#d79b00;flowAnimation=1;exitX=0;exitY=0;exitDx=70;exitDy=80;exitPerimeter=0;" parent="1" source="RyXJAOycTilbPtWUm33V-18" target="RyXJAOycTilbPtWUm33V-30" edge="1">
          <mxGeometry relative="1" as="geometry">
            <Array as="points">
              <mxPoint x="292" y="513" />
              <mxPoint x="600" y="513" />
            </Array>
            <mxPoint x="120" y="700" as="sourcePoint" />
          </mxGeometry>
        </mxCell>
        <mxCell id="RyXJAOycTilbPtWUm33V-18" value="HISTORY" style="shape=cube;whiteSpace=wrap;html=1;boundedLbl=1;backgroundOutline=1;darkOpacity=0.05;darkOpacity2=0.1;" parent="1" vertex="1">
          <mxGeometry x="222" y="310" width="120" height="80" as="geometry" />
        </mxCell>
        <mxCell id="RyXJAOycTilbPtWUm33V-23" style="edgeStyle=orthogonalEdgeStyle;rounded=0;orthogonalLoop=1;jettySize=auto;html=1;exitX=0.5;exitY=0;exitDx=0;exitDy=0;entryX=1;entryY=0;entryDx=0;entryDy=0;strokeWidth=3;fillColor=#dae8fc;strokeColor=#6c8ebf;flowAnimation=1;gradientColor=#7ea6e0;" parent="1" source="RyXJAOycTilbPtWUm33V-21" target="RyXJAOycTilbPtWUm33V-3" edge="1">
          <mxGeometry relative="1" as="geometry">
            <Array as="points">
              <mxPoint x="775" y="-183" />
              <mxPoint x="324" y="-183" />
            </Array>
          </mxGeometry>
        </mxCell>
        <mxCell id="RyXJAOycTilbPtWUm33V-21" value="&lt;div&gt;Commands&lt;/div&gt;" style="ellipse;whiteSpace=wrap;html=1;" parent="1" vertex="1">
          <mxGeometry x="720" y="-103" width="110" height="90" as="geometry" />
        </mxCell>
        <mxCell id="RyXJAOycTilbPtWUm33V-24" value="Update" style="text;html=1;align=center;verticalAlign=middle;resizable=0;points=[];autosize=1;strokeColor=none;fillColor=none;" parent="1" vertex="1">
          <mxGeometry x="520" y="-212" width="60" height="30" as="geometry" />
        </mxCell>
        <mxCell id="RyXJAOycTilbPtWUm33V-28" style="edgeStyle=orthogonalEdgeStyle;rounded=0;orthogonalLoop=1;jettySize=auto;html=1;exitX=0.388;exitY=0.971;exitDx=0;exitDy=0;fillColor=#ffcd28;strokeColor=#d79b00;gradientColor=#ffa500;strokeWidth=3;flowAnimation=1;entryX=0;entryY=0;entryDx=49.99999999999999;entryDy=0;entryPerimeter=0;exitPerimeter=0;" parent="1" source="RyXJAOycTilbPtWUm33V-3" target="RyXJAOycTilbPtWUm33V-18" edge="1">
          <mxGeometry relative="1" as="geometry">
            <mxPoint x="290" y="320" as="targetPoint" />
          </mxGeometry>
        </mxCell>
        <mxCell id="RyXJAOycTilbPtWUm33V-36" style="edgeStyle=orthogonalEdgeStyle;rounded=0;orthogonalLoop=1;jettySize=auto;html=1;exitX=0.5;exitY=0;exitDx=0;exitDy=0;entryX=0.5;entryY=1;entryDx=0;entryDy=0;strokeWidth=4;flowAnimation=1;fillColor=#d5e8d4;gradientColor=#97d077;strokeColor=#82b366;" parent="1" source="RyXJAOycTilbPtWUm33V-30" target="RyXJAOycTilbPtWUm33V-34" edge="1">
          <mxGeometry relative="1" as="geometry" />
        </mxCell>
        <mxCell id="RyXJAOycTilbPtWUm33V-30" value="Performance&lt;br&gt;Metric" style="whiteSpace=wrap;html=1;aspect=fixed;" parent="1" vertex="1">
          <mxGeometry x="560" y="370" width="80" height="80" as="geometry" />
        </mxCell>
        <mxCell id="RyXJAOycTilbPtWUm33V-35" style="edgeStyle=orthogonalEdgeStyle;rounded=0;orthogonalLoop=1;jettySize=auto;html=1;exitX=0.5;exitY=0;exitDx=0;exitDy=0;entryX=0.5;entryY=1;entryDx=0;entryDy=0;strokeWidth=3;flowAnimation=1;fillColor=#d5e8d4;gradientColor=#97d077;strokeColor=#82b366;" parent="1" source="RyXJAOycTilbPtWUm33V-34" target="RyXJAOycTilbPtWUm33V-1" edge="1">
          <mxGeometry relative="1" as="geometry" />
        </mxCell>
        <mxCell id="RyXJAOycTilbPtWUm33V-34" value="Training Strategy" style="whiteSpace=wrap;html=1;aspect=fixed;" parent="1" vertex="1">
          <mxGeometry x="560" y="223" width="80" height="80" as="geometry" />
        </mxCell>
        <mxCell id="RyXJAOycTilbPtWUm33V-37" value="Update&lt;br&gt;Weights" style="text;html=1;align=center;verticalAlign=middle;resizable=0;points=[];autosize=1;strokeColor=none;fillColor=none;" parent="1" vertex="1">
          <mxGeometry x="600" y="20" width="70" height="40" as="geometry" />
        </mxCell>
        <mxCell id="_hx6_GJGES43o-Bzlk7O-1" value="" style="shape=image;html=1;verticalAlign=top;verticalLabelPosition=bottom;labelBackgroundColor=#ffffff;imageAspect=0;aspect=fixed;image=https://cdn1.iconfinder.com/data/icons/vehicle-37/24/Drone-128.png" parent="1" vertex="1">
          <mxGeometry x="-150" y="-13" width="78" height="78" as="geometry" />
        </mxCell>
        <mxCell id="_hx6_GJGES43o-Bzlk7O-2" value="" style="shape=image;html=1;verticalAlign=top;verticalLabelPosition=bottom;labelBackgroundColor=#ffffff;imageAspect=0;aspect=fixed;image=https://cdn1.iconfinder.com/data/icons/vehicle-37/24/Drone-128.png" parent="1" vertex="1">
          <mxGeometry x="-170" y="132" width="78" height="78" as="geometry" />
        </mxCell>
        <mxCell id="BvUsk2P4A67WcpJFAGDw-1" value="" style="fontColor=#0066CC;verticalAlign=top;verticalLabelPosition=bottom;labelPosition=center;align=center;html=1;outlineConnect=0;fillColor=#CCCCCC;strokeColor=#6881B3;gradientColor=none;gradientDirection=north;strokeWidth=2;shape=mxgraph.networks.laptop;" vertex="1" parent="1">
          <mxGeometry x="680" y="440.0000000000001" width="100" height="55" as="geometry" />
        </mxCell>
        <mxCell id="F9VciCkbqvp731zZW4Mg-1" value="" style="rounded=1;whiteSpace=wrap;html=1;fillColor=#1ba1e2;fontColor=#ffffff;strokeColor=#006EAF;" vertex="1" parent="1">
          <mxGeometry x="182" y="-230" width="48" height="48" as="geometry" />
        </mxCell>
        <mxCell id="F9VciCkbqvp731zZW4Mg-2" value="" style="shape=image;html=1;verticalAlign=top;verticalLabelPosition=bottom;labelBackgroundColor=#ffffff;imageAspect=0;aspect=fixed;image=https://cdn1.iconfinder.com/data/icons/vehicle-37/24/Drone-128.png" vertex="1" parent="1">
          <mxGeometry x="190" y="-222" width="32" height="32" as="geometry" />
        </mxCell>
      </root>
    </mxGraphModel>
  </diagram>
</mxfile>
